Coordinates
nRows=12
nColumns=24

# SIMM Motion File Header:
name Coordinates
datacolumns 24
datarows 12
otherdata 1
range 0.36733000000000005000 0.37833000000000000000

Units are S.I. units (second, meters, Newtons, ...)
Angles are in degrees.

endheader
time	pelvis_tx	pelvis_ty	pelvis_tz	pelvis_tilt	pelvis_list	pelvis_rotation	hip_flexion_r	hip_adduction_r	hip_rotation_r	knee_angle_r	ankle_angle_r	subtalar_angle_r	mtp_angle_r	hip_flexion_l	hip_adduction_l	hip_rotation_l	knee_angle_l	ankle_angle_l	subtalar_angle_l	mtp_angle_l	lumbar_extension	lumbar_bending	lumbar_rotation
      0.36733000000000005000	      0.85529096480140576000	      0.87719924905922497000	     -0.33189496622275472000	     -6.96915879780603120000	      0.06526627995171133100	      5.70753832420263320000	     33.32908662052861400000	     -2.63778156720387580000	      0.52026781386943310000	    -43.95661777332105700000	      1.59387520217742610000	      0.00000000000000057362	     -0.00000000000000849121	      5.59792913306129150000	      3.78403232590118630000	     14.85153175477418600000	    -11.53371113256150200000	      9.66031397538083070000	     -0.00000000000006981599	     -0.00000000000007888835	     -2.62958670980171490000	     -0.29883388712283387000	     -2.20653845702570270000
      0.36832999999999999000	      0.85628983486148180000	      0.87711304516228528000	     -0.33193239539427483000	     -6.97663923835022090000	      0.04535370055611118900	      5.72410696981610290000	     33.37772899515884000000	     -2.61957732065443420000	      0.55166364758313957000	    -43.63463172239506300000	      1.62672090392315030000	      0.00000000000000058674	     -0.00000000000000854660	      5.51274910911263750000	      3.75672757191014960000	     14.89553057001349700000	    -11.49736927105021100000	      9.70203084955798010000	     -0.00000000000007035020	     -0.00000000000007908606	     -2.63339501788407620000	     -0.28498343454223729000	     -2.22564062266620600000
      0.36932999999999999000	      0.85728982134578557000	      0.87702503826760625000	     -0.33197011186783204000	     -6.98413833412089510000	      0.02590068237393961300	      5.74091594760209830000	     33.42495231992093400000	     -2.60214567033523990000	      0.58347496194947102000	    -43.31044427512944100000	      1.65756000599262700000	      0.00000000000000059845	     -0.00000000000000860157	      5.42777278120387760000	      3.72998611374659460000	     14.93812234990934100000	    -11.46174662271161200000	      9.74384370422817270000	     -0.00000000000007089171	     -0.00000000000007936417	     -2.63705818332432560000	     -0.27158965731373697000	     -2.24484479832892440000
      0.37032999999999999000	      0.85829094178686249000	      0.87693524501459641000	     -0.33200812522337841000	     -6.99164581391936580000	      0.00690727290160742660	      5.75796695228073490000	     33.47074918181606800000	     -2.58549158812424730000	      0.61568235918880687000	    -42.98409199833529500000	      1.68638317344860880000	      0.00000000000000061018	     -0.00000000000000865483	      5.34298658293712860000	      3.70381100630226180000	     14.97929782465989800000	    -11.42683446213024800000	      9.78574725669368560000	     -0.00000000000007142768	     -0.00000000000007972549	     -2.64058583163121160000	     -0.25865085174271180000	     -2.26414921711121050000
      0.37132999999999999000	      0.85929321359451649000	      0.87684368250147071000	     -0.33204644493277080000	     -6.99915117321486240000	     -0.01162683522109485300	      5.77526162780229240000	     33.51511234265914400000	     -2.56961947234722790000	      0.64826711899832756000	    -42.65561227216753100000	      1.71318289125192270000	      0.00000000000000062066	     -0.00000000000000870685	      5.25837652954430370000	      3.67820465942226750000	     15.01904925091230300000	    -11.39262344104769700000	      9.82773605051526640000	     -0.00000000000007193827	     -0.00000000000008021113	     -2.64398789883313560000	     -0.24616483086241064000	     -2.28355215540111760000
      0.37232999999999999000	      0.86029665403568212000	      0.87675036827231956000	     -0.33208508036591294000	     -7.00664368732438800000	     -0.02970230044823710100	      5.79280157068390620000	     33.55803475632830400000	     -2.55453315407149570000	      0.68121121903724680000	    -42.32504329985321300000	      1.73795349031756150000	      0.00000000000000063104	     -0.00000000000000875610	      5.17392824630200290000	      3.65316884154429950000	     15.05737040514261200000	    -11.35910362510083600000	      9.86980446410635890000	     -0.00000000000007246558	     -0.00000000000008067236	     -2.64727462049279840000	     -0.23412892684032183000	     -2.30305193751296720000
      0.37333000000000000000	      0.86130128021401708000	      0.87665532030432147000	     -0.33212404079641111000	     -7.01411242459341460000	     -0.04732012857264276300	      5.81058833333578660000	     33.59950958600777000000	     -2.54023590345691290000	      0.71449735540755099000	    -41.99242411742341100000	      1.76069117357248570000	      0.00000000000000064189	     -0.00000000000000880473	      5.08962699693049190000	      3.62870468338730530000	     15.09425657703954500000	    -11.32626453055551400000	      9.91194671932435690000	     -0.00000000000007300757	     -0.00000000000008112745	     -2.65045652073435130000	     -0.22253999341832198000	     -2.32264694035012420000
      0.37433000000000000000	      0.86230710904921981000	      0.87655855699509544000	     -0.33216333540675280000	     -7.02154625957734080000	     -0.06448166897818366500	      5.82862342737712870000	     33.63953022142431600000	     -2.52673043616376750000	      0.74810896312921848000	    -41.65779460344840900000	      1.78139404201523900000	      0.00000000000000065473	     -0.00000000000000885465	      5.00545771197721120000	      3.60481268168834430000	     15.12970456289162900000	    -11.29409516103581300000	      9.95415689006002150000	     -0.00000000000007357234	     -0.00000000000008149397	     -2.65354440128279960000	     -0.21139440838586376000	     -2.34233559809481170000
      0.37533000000000000000	      0.86331415725618577000	      0.87646009715018891000	     -0.33220297329274895000	     -7.02893388624565760000	     -0.08118861082174821900	      5.84690832694428050000	     33.67809029607413900000	     -2.51401891986967210000	      0.78203023650297865000	    -41.32119548878023400000	      1.80006212056104500000	      0.00000000000000066738	     -0.00000000000000890437	      4.92140501722793200000	      3.58149270305343360000	     15.16371265880929900000	    -11.26258404431483000000	      9.99642890952794260000	     -0.00000000000007411939	     -0.00000000000008190770	     -2.65654933047261070000	     -0.20068807626010782000	     -2.36211640696361290000
      0.37633000000000000000	      0.86432244132582536000	      0.87635995997005700000	     -0.33224296346261434000	     -7.03626383160090630000	     -0.09744297829026009300	      5.86544447206299680000	     33.71518370442289100000	     -2.50210298136334060000	      0.81624614749647395000	    -40.98266836631361800000	      1.81669738011595340000	      0.00000000000000067967	     -0.00000000000000895377	      4.83745326285750820000	      3.55874398857931420000	     15.19628065216170000000	    -11.23171927035091500000	     10.03875657535471600000	     -0.00000000000007463558	     -0.00000000000008234538	     -2.65948263143786260000	     -0.19041643360392668000	     -2.38198793067662470000
      0.37733000000000000000	      0.86533197751297097000	      0.87625816503333176000	     -0.33228331481706924000	     -7.04352447076339860000	     -0.11324712336300399000	      5.88423327207843450000	     33.75080461901066500000	     -2.49098371462595350000	      0.85074245667779014000	    -40.64225570073283200000	      1.83130374575170250000	      0.00000000000000069388	     -0.00000000000000900433	      4.75358655467530070000	      3.53656516043585080000	     15.22740980538563500000	    -11.20148853157119400000	     10.08113356076372500000	     -0.00000000000007515130	     -0.00000000000008268398	     -2.66235586717882140000	     -0.18057446293847745000	     -2.40194880822018720000
      0.37833000000000000000	      0.86634278183004232000	      0.87615473227635843000	     -0.33232403611373090000	     -7.05070404321898620000	     -0.12860371655315084000	      5.90327610907246040000	     33.78494750747587000000	     -2.48066168981940560000	      0.88550571818480628000	    -40.30000083825536400000	      1.84388709368106210000	      0.00000000000000071135	     -0.00000000000000905874	      4.66978878695470990000	      3.51495423021250540000	     15.25710283300967000000	    -11.17187916454568300000	     10.12355342433242600000	     -0.00000000000007571689	     -0.00000000000008289739	     -2.66518082312895780000	     -0.17115671368109606000	     -2.42199776343375910000
